<?xml version="1.0" encoding="utf-8"?>
<!-- Generator: Adobe Illustrator 25.3.1, SVG Export Plug-In . SVG Version: 6.00 Build 0)  -->
<svg version="1.1" id="Warstwa_1" xmlns="http://www.w3.org/2000/svg" xmlns:xlink="http://www.w3.org/1999/xlink" x="0px" y="0px"
	 viewBox="0 0 430 430" style="enable-background:new 0 0 430 430;" xml:space="preserve">
<style type="text/css">
	.st0{fill:#08A88A;}
	.st1{fill:#4BB3FD;}
	.st2{opacity:0.5;fill:#4BB3FD;}
	.st3{fill:#121331;}
	.st4{fill:#FFC738;}
	.st5{fill:#646e78;}
	.st6{opacity:0.5;fill:#FFC738;}
	.st7{opacity:0.5;fill:#646e78;}
	.st8{fill:#2CA58D;}
	.st9{opacity:0.5;fill:#2CA58D;}
	.st10{fill:#ebe6ef;}
	.st11{opacity:0.5;fill:#ebe6ef;}
	.st12{fill:none;}
	.st13{fill-opacity:0;}
	.st14{fill:#F24C00;}
	.st15{fill:none;stroke:#FFC738;stroke-width:7;stroke-linecap:round;stroke-linejoin:round;stroke-miterlimit:14.8;}
</style>
<path class="st10" d="M389.26,108.93c-0.66-0.87-1.67-1.38-2.77-1.38c-1.28,0-18.89-0.01-39.31-0.01l-248.24-0.09h0
	c-0.59,0-1.15,0.26-1.53,0.71c-0.38,0.45-0.54,1.04-0.45,1.62l28.09,166.6c0.1,0.57,0.43,1.07,0.93,1.37c0.32,0.2,0.68,0.3,1.05,0.3
	c0.2,0,0.4-0.03,0.6-0.09c1.64-0.51,6.62-0.89,12.93-1.38c6.66-0.51,14.95-1.15,24.85-2.27l145.7-16.6
	c21-2.39,42.87-20.85,48.76-41.15l18.76-64.69c5.69-19.61,10.71-36.93,11.2-38.65C390.29,111.59,390.09,110.03,389.26,108.93z"/>
<path class="st11" d="M154.02,253.1c-2.19,0.16-4.12-1.5-4.28-3.7l-10.42-141.94l-40.38-0.01h0c-0.59,0-1.15,0.26-1.53,0.71
	c-0.38,0.45-0.54,1.04-0.45,1.62l28.09,166.6c0.1,0.57,0.43,1.07,0.93,1.37c0.32,0.2,0.68,0.3,1.05,0.3c0.2,0,0.4-0.03,0.6-0.09
	c1.64-0.51,6.62-0.89,12.93-1.38c6.66-0.51,14.95-1.15,24.85-2.27l145.7-16.6c12.66-1.44,25.63-8.73,35.23-18.73L154.02,253.1z"/>
<path class="st3" d="M306.48,305.45H131.19c-13.58,0-18.78-4.91-20.75-9.02c-2.34-4.89-1.2-11.14,2.97-16.31
	c4.52-5.61,12.53-7.42,12.87-7.49c1.88-0.41,3.75,0.78,4.17,2.67c0.41,1.89-0.78,3.75-2.66,4.16c-0.07,0.02-5.97,1.38-8.93,5.05
	c-2.42,3-3.25,6.49-2.1,8.89c1.56,3.25,6.68,5.04,14.43,5.04h175.29c1.93,0,3.5,1.57,3.5,3.5S308.41,305.45,306.48,305.45z"/>
<path class="st5" d="M144.14,297.95c15.32,0,27.75,12.43,27.75,27.75c0,15.32-12.43,27.75-27.75,27.75s-27.75-12.43-27.75-27.75
	C116.39,310.38,128.83,297.95,144.14,297.95z"/>
<path class="st5" d="M308.33,297.95c15.32,0,27.75,12.43,27.75,27.75c0,15.32-12.43,27.75-27.75,27.75
	c-15.32,0-27.75-12.43-27.75-27.75C280.58,310.38,293.01,297.95,308.33,297.95z"/>
<path class="st3" d="M127.02,279.55c-1.68,0-3.16-1.21-3.45-2.92L95.49,109.62c-3.06-18.2-15.94-33.57-28.12-33.57H41.93
	c-1.93,0-3.5-1.57-3.5-3.5s1.57-3.5,3.5-3.5h25.44c15.92,0,31.31,17.31,35.03,39.41l28.09,167.01c0.32,1.91-0.96,3.71-2.87,4.03
	C127.41,279.53,127.22,279.55,127.02,279.55z"/>
<path class="st7" d="M150.54,345.92c-15.32,0-27.75-12.44-27.75-27.75c0-5.07,1.37-9.83,3.75-13.92
	c-6.2,5.09-10.15,12.81-10.15,21.45c0,15.31,12.43,27.75,27.75,27.75c10.24,0,19.19-5.57,24-13.83
	C163.35,343.56,157.22,345.92,150.54,345.92z"/>
<path class="st7" d="M314.73,345.92c-15.32,0-27.75-12.44-27.75-27.75c0-5.07,1.37-9.83,3.75-13.92
	c-6.2,5.09-10.15,12.81-10.15,21.45c0,15.31,12.43,27.75,27.75,27.75c10.24,0,19.19-5.57,24-13.83
	C327.54,343.56,321.41,345.92,314.73,345.92z"/>
</svg>
